<?xml version="1.0" encoding="UTF-8"?>
<!DOCTYPE svg PUBLIC "-//W3C//DTD SVG 1.1//EN" "http://www.w3.org/Graphics/SVG/1.1/DTD/svg11.dtd">
<svg xmlns="http://www.w3.org/2000/svg" version="1.1" width="1953px" height="603px" style="shape-rendering:geometricPrecision; text-rendering:geometricPrecision; image-rendering:optimizeQuality; fill-rule:evenodd; clip-rule:evenodd" xmlns:xlink="http://www.w3.org/1999/xlink">
<g><path style="opacity:0.99" fill="#027fcf" d="M 163.5,-0.5 C 174.833,-0.5 186.167,-0.5 197.5,-0.5C 271.655,9.4037 322.988,48.9037 351.5,118C 351.167,118.5 350.833,119 350.5,119.5C 329.485,113.031 308.152,111.864 286.5,116C 261.232,121.055 237.399,129.888 215,142.5C 205.403,124.976 194.07,108.643 181,93.5C 163.036,72.9345 140.869,59.1011 114.5,52C 100.139,49.06 85.8053,49.3933 71.5,53C 61.158,56.1099 51.158,59.7766 41.5,64C 73.6029,26.4469 114.27,4.94694 163.5,-0.5 Z"/></g>
<g><path style="opacity:0.975" fill="#027fcf" d="M -0.5,171.5 C -0.5,167.833 -0.5,164.167 -0.5,160.5C 1.46051,147.72 4.46051,135.054 8.5,122.5C 63.0961,96.0526 115.763,99.2193 166.5,132C 173.794,137.626 180.794,143.626 187.5,150C 166.433,145.188 145.1,141.522 123.5,139C 93.7284,135.68 64.7284,139.013 36.5,149C 22.8386,154.489 10.5053,161.989 -0.5,171.5 Z"/></g>
<g><path style="opacity:0.983" fill="#027fcf" d="M 1739.5,135.5 C 1760.57,135.017 1772.24,145.184 1774.5,166C 1771.41,188.08 1758.74,197.747 1736.5,195C 1718.6,188.714 1711.44,176.214 1715,157.5C 1719.21,145.661 1727.38,138.327 1739.5,135.5 Z"/></g>
<g><path style="opacity:0.979" fill="#fefffe" d="M 947.5,138.5 C 963.167,138.5 978.833,138.5 994.5,138.5C 994.667,164.502 994.5,190.502 994,216.5C 993.422,223.535 992.589,230.535 991.5,237.5C 991.833,238.167 992.167,238.833 992.5,239.5C 1005.45,221.109 1023.28,212.109 1046,212.5C 1086.74,215.547 1113.41,236.547 1126,275.5C 1134.79,308.408 1129.46,338.741 1110,366.5C 1081.74,398.275 1048.24,405.442 1009.5,388C 1003.32,382.99 997.657,377.49 992.5,371.5C 991.503,378.134 991.17,384.8 991.5,391.5C 976.833,391.5 962.167,391.5 947.5,391.5C 947.5,307.167 947.5,222.833 947.5,138.5 Z M 1029.5,256.5 C 1057.7,255.216 1075.2,268.216 1082,295.5C 1085.64,324.475 1073.81,343.641 1046.5,353C 1019.23,355.959 1001.4,344.459 993,318.5C 987.557,287.007 999.723,266.341 1029.5,256.5 Z"/></g>
<g><path style="opacity:0.972" fill="#037fcf" d="M 259.5,159.5 C 297.816,156.665 331.982,166.998 362,190.5C 361.878,205.147 359.878,219.48 356,233.5C 340.502,216.67 322.669,202.837 302.5,192C 280.607,180.886 257.941,171.719 234.5,164.5C 242.822,162.175 251.156,160.508 259.5,159.5 Z"/></g>
<g><path style="opacity:0.989" fill="#027fcf" d="M 173.5,180.5 C 176.187,180.336 178.854,180.503 181.5,181C 163.561,199.608 148.728,220.442 137,243.5C 122.682,272.135 110.015,301.468 99,331.5C 89.7166,358.518 80.5499,385.518 71.5,412.5C 44.1743,359.696 22.841,304.529 7.5,247C 56.6084,209.623 111.942,187.457 173.5,180.5 Z"/></g>
<g><path style="opacity:0.994" fill="#027fcf" d="M 181.5,602.5 C 180.833,602.5 180.167,602.5 179.5,602.5C 164.19,576.554 148.357,550.888 132,525.5C 131.148,415.087 156.481,311.087 208,213.5C 212.249,206 216.749,198.666 221.5,191.5C 269.433,225.594 305.433,269.427 329.5,323C 298.663,398.841 262.163,471.675 220,541.5C 207.156,561.861 194.323,582.195 181.5,602.5 Z"/></g>
<g><path style="opacity:0.97" fill="#fefffe" d="M 824.5,212.5 C 854.191,210.112 879.025,219.779 899,241.5C 915.033,263.967 921.2,288.967 917.5,316.5C 874.165,316.333 830.832,316.5 787.5,317C 793.353,341.677 809.02,354.51 834.5,355.5C 845.285,355.627 854.951,352.46 863.5,346C 868.77,341.404 873.27,336.238 877,330.5C 890.245,336.538 903.078,343.205 915.5,350.5C 890.769,389.71 855.435,404.544 809.5,395C 772.927,385.094 750.761,361.594 743,324.5C 736.555,286.822 747.722,255.655 776.5,231C 790.882,220.377 806.882,214.21 824.5,212.5 Z M 824.5,251.5 C 843.575,249.127 858.409,255.794 869,271.5C 870.674,275.021 871.84,278.687 872.5,282.5C 845.165,282.667 817.831,282.5 790.5,282C 796.396,265.596 807.73,255.429 824.5,251.5 Z"/></g>
<g><path style="opacity:0.973" fill="#fefffe" d="M 1232.5,212.5 C 1269.67,210.337 1298.83,224.337 1320,254.5C 1338.23,289.015 1337.9,323.348 1319,357.5C 1293.43,391.476 1259.6,403.976 1217.5,395C 1179.74,384.572 1157.24,360.072 1150,321.5C 1144.58,284.416 1156.08,253.916 1184.5,230C 1199.04,219.882 1215.04,214.049 1232.5,212.5 Z M 1233.5,256.5 C 1261.26,254.95 1278.42,267.617 1285,294.5C 1288.74,315.298 1282.57,332.464 1266.5,346C 1249.5,356 1232.5,356 1215.5,346C 1199.47,332.58 1193.3,315.413 1197,294.5C 1201.62,274.387 1213.78,261.72 1233.5,256.5 Z"/></g>
<g><path style="opacity:0.97" fill="#fefffe" d="M 1422.5,212.5 C 1440.67,211.583 1458.34,214.083 1475.5,220C 1496.19,228.875 1508.69,244.375 1513,266.5C 1514.05,272.117 1514.72,277.784 1515,283.5C 1515.5,319.498 1515.67,355.498 1515.5,391.5C 1499.83,391.5 1484.17,391.5 1468.5,391.5C 1468.83,385.463 1468.5,379.463 1467.5,373.5C 1447.47,396.511 1422.8,403.344 1393.5,394C 1358.27,379.37 1345.77,353.537 1356,316.5C 1365.26,297.253 1380.43,285.42 1401.5,281C 1424.23,276.477 1446.39,278.31 1468,286.5C 1469.42,270.567 1462.59,259.734 1447.5,254C 1424.65,247.504 1405.48,253.337 1390,271.5C 1379,263.833 1368,256.167 1357,248.5C 1359.01,243.726 1362.18,239.559 1366.5,236C 1382.77,222.363 1401.44,214.53 1422.5,212.5 Z M 1425.5,313.5 C 1440.23,312.446 1454.23,315.113 1467.5,321.5C 1467.06,338.84 1458.72,351.006 1442.5,358C 1430.7,362.042 1419.37,361.042 1408.5,355C 1398.4,346.143 1396.9,335.976 1404,324.5C 1410.1,318.534 1417.27,314.868 1425.5,313.5 Z"/></g>
<g><path style="opacity:0.969" fill="#fefffe" d="M 1607.5,212.5 C 1629.9,211.1 1650.57,216.267 1669.5,228C 1678.15,234.641 1684.48,242.974 1688.5,253C 1675.56,259.49 1662.22,265.324 1648.5,270.5C 1637.33,253.748 1622,247.915 1602.5,253C 1587.47,259.751 1586.8,267.418 1600.5,276C 1616.32,280.955 1632.32,285.288 1648.5,289C 1683.31,299.469 1696.81,322.303 1689,357.5C 1678.48,378.996 1661.31,391.829 1637.5,396C 1608.46,401.328 1582.13,395.328 1558.5,378C 1549.52,369.361 1542.52,359.361 1537.5,348C 1551.35,341.576 1565.35,335.409 1579.5,329.5C 1592.74,354.412 1612.41,361.579 1638.5,351C 1646.49,343.953 1646.49,336.953 1638.5,330C 1634.1,327.467 1629.43,325.467 1624.5,324C 1612.8,321.461 1601.14,318.794 1589.5,316C 1568.57,311.396 1554.07,299.229 1546,279.5C 1540.88,250.245 1552.04,230.079 1579.5,219C 1588.7,215.642 1598.03,213.475 1607.5,212.5 Z"/></g>
<g><path style="opacity:0.985" fill="#027fcf" d="M 1952.5,334.5 C 1952.5,338.5 1952.5,342.5 1952.5,346.5C 1945.86,370.979 1930.19,386.813 1905.5,394C 1878.62,401.036 1852.95,398.036 1828.5,385C 1814.56,375.719 1804.22,363.386 1797.5,348C 1811.35,341.576 1825.35,335.409 1839.5,329.5C 1852.8,354.432 1872.47,361.599 1898.5,351C 1906.49,343.953 1906.49,336.953 1898.5,330C 1895.04,327.953 1891.37,326.287 1887.5,325C 1874.87,321.873 1862.2,318.873 1849.5,316C 1828.57,311.396 1814.07,299.229 1806,279.5C 1800.87,250.25 1812.04,230.084 1839.5,219C 1864.94,210.123 1890.27,210.456 1915.5,220C 1930.51,227.013 1941.51,238.013 1948.5,253C 1935.56,259.49 1922.22,265.324 1908.5,270.5C 1898.73,255.173 1884.73,249.006 1866.5,252C 1858.39,253.131 1853.05,257.464 1850.5,265C 1852.96,272.118 1857.96,276.451 1865.5,278C 1879.8,281.824 1894.13,285.491 1908.5,289C 1932.65,295.307 1947.31,310.474 1952.5,334.5 Z"/></g>
<g><path style="opacity:0.976" fill="#fefffe" d="M 452.5,218.5 C 470.167,218.5 487.833,218.5 505.5,218.5C 514.171,252.851 523.005,287.184 532,321.5C 532.36,323.421 533.194,325.088 534.5,326.5C 546.439,290.685 557.772,254.685 568.5,218.5C 585.077,218.175 601.577,218.508 618,219.5C 629.282,255.346 640.949,291.013 653,326.5C 663.428,290.79 672.928,254.79 681.5,218.5C 699.17,218.333 716.836,218.5 734.5,219C 715.627,276.326 697.293,333.826 679.5,391.5C 662.167,391.5 644.833,391.5 627.5,391.5C 617.441,358.821 607.274,326.155 597,293.5C 596.154,289.766 594.654,286.432 592.5,283.5C 580.505,318.986 569.005,354.653 558,390.5C 541.241,391.658 524.407,391.825 507.5,391C 488.461,333.718 470.128,276.218 452.5,218.5 Z"/></g>
<g><path style="opacity:0.983" fill="#0280cf" d="M 1720.5,218.5 C 1736.17,218.5 1751.83,218.5 1767.5,218.5C 1767.5,276.167 1767.5,333.833 1767.5,391.5C 1751.83,391.5 1736.17,391.5 1720.5,391.5C 1720.5,333.833 1720.5,276.167 1720.5,218.5 Z"/></g>
<g><path style="opacity:0.942" fill="#66c3ff" d="M 629.5,445.5 C 640.505,445.333 651.505,445.5 662.5,446C 681.839,451.515 687.673,463.682 680,482.5C 676.555,486.783 672.388,490.117 667.5,492.5C 671.367,495.876 674.534,499.876 677,504.5C 680.943,513.386 684.61,522.386 688,531.5C 689.044,536.337 687.044,538.337 682,537.5C 679.53,537.66 677.364,536.993 675.5,535.5C 671.292,524.711 666.792,514.044 662,503.5C 656.25,497.127 649.083,494.793 640.5,496.5C 640.667,509.504 640.5,522.504 640,535.5C 636.352,537.684 632.519,538.018 628.5,536.5C 627.333,506.839 627.167,477.172 628,447.5C 628.717,446.956 629.217,446.289 629.5,445.5 Z M 640.5,455.5 C 648.733,455.321 656.733,456.488 664.5,459C 671.098,466.697 671.098,474.364 664.5,482C 662.283,483.275 659.949,484.275 657.5,485C 651.843,485.499 646.176,485.666 640.5,485.5C 640.5,475.5 640.5,465.5 640.5,455.5 Z"/></g>
<g><path style="opacity:0.937" fill="#65c3ff" d="M 725.5,467.5 C 749.368,469.187 759.035,481.687 754.5,505C 739.837,505.5 725.17,505.667 710.5,505.5C 709.4,520.662 716.4,527.995 731.5,527.5C 738.082,527.419 744.415,526.086 750.5,523.5C 751.442,523.608 752.275,523.941 753,524.5C 753.667,527.167 753.667,529.833 753,532.5C 737.007,541.14 721.507,540.474 706.5,530.5C 699.719,522.823 696.719,513.823 697.5,503.5C 696.976,483.401 706.309,471.401 725.5,467.5 Z M 726.5,477.5 C 738.124,478.459 743.79,484.792 743.5,496.5C 732.5,496.5 721.5,496.5 710.5,496.5C 710.869,485.81 716.202,479.476 726.5,477.5 Z"/></g>
<g><path style="opacity:0.943" fill="#65c3ff" d="M 856.5,467.5 C 863.201,467.505 869.535,469.005 875.5,472C 878.402,474.24 880.569,477.073 882,480.5C 883.129,490.263 883.629,500.097 883.5,510C 883.167,518.833 882.833,527.667 882.5,536.5C 875.291,539.553 872.124,537.22 873,529.5C 863.077,538.818 851.91,540.651 839.5,535C 831.942,529.257 829.442,521.757 832,512.5C 835.834,503.648 842.667,498.814 852.5,498C 858.825,497.5 865.158,497.334 871.5,497.5C 873.137,481.641 866.137,475.474 850.5,479C 846.63,480.287 842.964,481.953 839.5,484C 837.888,484.72 836.388,484.554 835,483.5C 833.996,480.007 834.496,476.841 836.5,474C 842.893,470.577 849.56,468.411 856.5,467.5 Z M 854.5,506.5 C 860.167,506.5 865.833,506.5 871.5,506.5C 873.51,519.337 868.01,526.671 855,528.5C 844.857,526.545 841.857,520.878 846,511.5C 848.682,509.415 851.516,507.748 854.5,506.5 Z"/></g>
<g><path style="opacity:0.939" fill="#65c3ff" d="M 934.5,467.5 C 943.956,467.305 950.956,471.305 955.5,479.5C 958.686,476.479 962.02,473.646 965.5,471C 981.185,464.22 992.018,468.72 998,484.5C 999.719,501.708 999.885,518.875 998.5,536C 994.906,537.741 991.239,537.908 987.5,536.5C 986.926,519.8 986.092,503.133 985,486.5C 981.037,478.846 975.204,477.013 967.5,481C 964.333,484.167 961.167,487.333 958,490.5C 957.833,505.844 957.333,521.178 956.5,536.5C 953.167,537.833 949.833,537.833 946.5,536.5C 945.667,521.511 945.167,506.511 945,491.5C 944.407,483.959 940.407,479.625 933,478.5C 926.39,480.804 921.057,484.804 917,490.5C 916.833,505.844 916.333,521.178 915.5,536.5C 912.167,537.833 908.833,537.833 905.5,536.5C 904.167,514.167 904.167,491.833 905.5,469.5C 913.947,466.491 917.447,469.491 916,478.5C 920.87,472.425 927.037,468.759 934.5,467.5 Z"/></g>
<g><path style="opacity:0.949" fill="#65c3ff" d="M 1049.5,467.5 C 1066.82,468.092 1076.32,477.092 1078,494.5C 1080.2,508.35 1077.04,520.684 1068.5,531.5C 1055.73,541.343 1043.57,540.676 1032,529.5C 1031.67,540.167 1031.33,550.833 1031,561.5C 1027.59,562.622 1024.09,562.789 1020.5,562C 1019.17,531.233 1019.17,500.4 1020.5,469.5C 1028.63,466.989 1032.13,469.989 1031,478.5C 1036.1,472.873 1042.27,469.206 1049.5,467.5 Z M 1048.5,478.5 C 1054.2,478.601 1058.7,480.934 1062,485.5C 1066.62,496.86 1066.62,508.193 1062,519.5C 1056.84,527.44 1050.01,529.274 1041.5,525C 1037.67,522.5 1034.5,519.333 1032,515.5C 1031.33,507.167 1031.33,498.833 1032,490.5C 1036.33,484.633 1041.83,480.633 1048.5,478.5 Z"/></g>
<g><path style="opacity:0.934" fill="#65c3ff" d="M 766.5,468.5 C 770.257,468.071 773.757,468.737 777,470.5C 783,487.833 789,505.167 795,522.5C 801,505.167 807,487.833 813,470.5C 817,467.833 821,467.833 825,470.5C 818.475,492.904 810.642,514.904 801.5,536.5C 796.494,538.059 791.661,537.726 787,535.5C 778.929,514.695 771.429,493.695 764.5,472.5C 764.803,470.886 765.47,469.552 766.5,468.5 Z"/></g>
</svg>
